<?xml version="1.0" encoding="UTF-8" standalone="no"?>
<svg
   width="906"
   height="906"
   version="1.1"
   id="svg73"
   sodipodi:docname="plate-for-bicycle-workshop-.svg"
   inkscape:version="1.3.2 (091e20e, 2023-11-25, custom)"
   xmlns:inkscape="http://www.inkscape.org/namespaces/inkscape"
   xmlns:sodipodi="http://sodipodi.sourceforge.net/DTD/sodipodi-0.dtd"
   xmlns="http://www.w3.org/2000/svg"
   xmlns:svg="http://www.w3.org/2000/svg">
  <sodipodi:namedview
     id="namedview73"
     pagecolor="#ffffff"
     bordercolor="#000000"
     borderopacity="0.25"
     inkscape:showpageshadow="2"
     inkscape:pageopacity="0.0"
     inkscape:pagecheckerboard="0"
     inkscape:deskcolor="#d1d1d1"
     inkscape:zoom="1.1556291"
     inkscape:cx="453"
     inkscape:cy="453"
     inkscape:window-width="2400"
     inkscape:window-height="1261"
     inkscape:window-x="-9"
     inkscape:window-y="-9"
     inkscape:window-maximized="1"
     inkscape:current-layer="svg73" />
  <path
     fill="#989895"
     transform="scale(0.884766 0.884766)"
     d="M490.727 56.7072L492 56.6019C605.909 51.2167 723.3 90.952 809.059 166.365C820.342 176.287 831.505 186.53 841.801 197.482C914.899 275.241 960.572 378.051 967.255 484.762C973.71 587.826 943.828 691.627 884.173 775.847C874.717 789.196 864.164 801.943 853.351 814.204C781.08 896.146 679.106 948.747 571.189 963.656C558.635 965.39 545.961 966.131 533.321 966.93C509.457 967.893 485.595 967.517 461.84 964.868C396.857 957.62 334.477 936.35 278.302 902.988C257.76 890.788 238.132 877.308 219.959 861.765C127.035 782.293 65.9574 667.821 56.75 545.333C47.7947 426.199 87.634 305.831 165.817 215.47C230.419 140.805 318.154 87.8731 414.736 66.8786C439.926 61.4027 465.055 58.5563 490.727 56.7072Z"
     id="path2" />
  <path
     transform="scale(0.884766 0.884766)"
     d="M496.001 87.7138C534.351 86.6712 573.202 89.9885 610.581 98.7678C677.378 114.456 740.291 147.498 791.846 192.636C875.991 266.308 928.839 374.129 936.089 485.559C943.208 594.956 908.059 704.712 835.373 787.25C771.099 860.236 685.144 911.765 589.191 929.637C568.796 933.436 548.221 935.128 527.548 936.47C500.248 936.911 473.546 936.137 446.484 932.145C368.27 920.607 291.979 885.135 232.968 832.458C215.638 816.989 199.306 800.553 184.517 782.617C126.386 712.111 91.1146 624.472 86.0396 533.13C81.8148 457.09 100.559 378.21 136.976 311.413C153.257 281.55 173.318 253.877 195.982 228.554C259.545 157.532 345.731 109.437 439.772 93.3751C458.419 90.1903 477.139 88.7713 496.001 87.7138Z"
     id="path3" />
  <path
     fill="#BEBCBB"
     transform="scale(0.884766 0.884766)"
     d="M489.95 103.71L490.039 103.7C595.564 98.2785 699.17 134.173 779.086 203.097C859.776 272.688 912.297 376.648 920.034 482.971C927.107 580.174 898.648 678.266 839.774 756.063L822.416 776.815C806.493 795.152 788.761 812.997 769.945 828.388C721.978 867.624 663.669 896.26 603.365 910.43C580.688 915.759 557.251 918.795 534.034 920.434C518.371 921.003 502.486 921.353 486.828 920.354C445.311 917.706 402.943 908.905 364.126 893.816C318.834 876.209 276.993 849.951 240.666 817.785C220.953 800.33 203.255 780.661 187.316 759.72C137.812 694.683 107.529 617.421 102.679 535.579C96.3915 429.478 134.884 321.586 205.299 242.135C257.814 182.881 325.858 138.974 402.396 117.806C430.88 109.929 460.487 105.505 489.95 103.71Z"
     id="path4" />
  <path
     transform="scale(0.884766 0.884766)"
     d="M504.653 111.726L504.853 111.713C537.017 110.829 569.448 114.724 600.75 121.984C669.668 137.968 733.074 170.623 784.755 219.233C860.27 290.26 908.849 393.407 912.043 497.364C912.775 521.194 911.884 545.312 908.513 568.938C897.196 648.252 861.528 723.743 806.496 782.118C791.664 797.85 775.979 812.751 758.939 826.09C690.913 879.342 606.396 909.574 520.125 912.114L517.844 912.197C498.58 912.83 479.104 911.47 460 909.026C376.631 898.362 299.763 861.683 238.456 804.242C161.827 732.445 114.495 630.28 111.132 525.247C107.717 418.591 148.979 314.057 221.886 236.543C277.128 177.811 350.108 136.672 429.08 120.142C454.116 114.901 479.128 112.484 504.653 111.726Z"
     id="path5" />
  <path
     fill="#EAB47F"
     transform="scale(0.884766 0.884766)"
     d="M584.12 199.037C583.153 197.738 582.207 196.438 581.46 194.996C580.637 193.409 579.949 191.714 580.496 189.98C582.194 188.916 583.684 188.47 585.623 187.994C585.269 191.665 585.04 195.454 584.12 199.037Z"
     id="path6" />
  <path
     fill="white"
     transform="scale(0.884766 0.884766)"
     d="M194.276 581.25C197.141 581.883 201.333 587.037 203.037 589.49L199.888 593.878L198.375 595.75L197.647 595.436C196.568 591.799 193.503 584.88 194.276 581.25Z"
     id="path7" />
  <path
     fill="#BEBCBB"
     transform="scale(0.884766 0.884766)"
     d="M585.623 187.994C588.855 188.289 591.498 188.457 594.307 190.25C594.497 192.329 593.075 194.836 591.771 196.472C590.56 197.991 588.545 199.71 586.5 199.862C585.261 199.954 585.01 199.766 584.12 199.037C585.04 195.454 585.269 191.665 585.623 187.994Z"
     id="path8" />
  <path
     fill="white"
     transform="scale(0.884766 0.884766)"
     d="M197.381 427.059C199.552 429.459 203.324 432.48 203.541 435.75C202.343 438.106 199.793 439.609 197.726 441.183L193.065 444.851L197.381 427.059Z"
     id="path9" />
  <path
     fill="#BEBCBB"
     transform="scale(0.884766 0.884766)"
     d="M438.255 187.25L440.097 187.337C442.196 188.847 443.704 190.544 445.35 192.502L439.891 199.363L438.398 199.25C437.943 199.072 437.859 199.055 437.374 198.77C434.48 197.071 432.471 195.016 431.616 191.75C433.096 189.425 435.772 188.202 438.255 187.25Z"
     id="path10" />
  <path
     fill="white"
     transform="scale(0.884766 0.884766)"
     d="M833.461 579.75L834.362 579.844C833.077 586.489 831.242 594.34 828.42 600.466L828 600.469L827.06 598.923L822.975 591.062L823.867 589C824.565 587.369 825.005 586.183 826.469 585.109L833.461 579.75Z"
     id="path11" />
  <path
     fill="#707070"
     transform="scale(0.884766 0.884766)"
     d="M435.693 819.75C436.738 819.562 437.57 819.464 438.613 819.748C440.194 820.178 441.644 821.443 442.431 822.873C443.289 824.432 443.236 826.677 442.667 828.324C441.871 830.631 440.573 831.796 438.386 832.75C437.538 832.902 436.613 832.84 435.75 832.852C434.021 832.04 432.793 830.918 431.915 829.188C431.075 827.533 430.875 825.89 431.49 824.125C432.238 821.979 433.721 820.722 435.693 819.75Z"
     id="path12" />
  <path
     fill="#BEBCBB"
     transform="scale(0.884766 0.884766)"
     d="M826.062 427.25C826.691 427.167 826.711 427.133 827.438 427.21C830.62 427.547 833.183 430.806 835.048 433.134C834.62 436.301 833.45 441.379 831.331 443.75C828.282 442.552 824.514 439.296 822.891 436.466C822.146 435.168 822.152 433.568 822.552 432.156C823.105 430.204 824.246 428.214 826.062 427.25Z"
     id="path13" />
  <path
     fill="#707070"
     transform="scale(0.884766 0.884766)"
     d="M585.222 818.75C586.82 818.265 589.495 818.125 591.094 818.72C593.23 819.514 594.65 821.258 595.552 823.304C596.594 825.669 596.858 828.318 595.864 830.75C594.688 833.628 592.508 835.045 589.778 836.25C588.311 836.651 586.575 836.519 585.12 836.093C583.091 835.498 580.54 833.504 579.554 831.61C578.608 829.792 578.493 827.684 579.122 825.75C580.183 822.485 582.203 820.279 585.222 818.75Z"
     id="path14" />
  <path
     fill="#989895"
     transform="scale(0.884766 0.884766)"
     d="M767.321 240.125C770.797 239.902 774.406 240.408 777.502 242.048C781.613 244.226 784.863 248.278 786.201 252.729C787.507 257.075 787.128 262.086 784.725 265.983C781.95 270.482 777.489 273.203 772.457 274.482C768.09 274.6 764.829 274.657 760.961 272.25C757.25 269.941 754.088 266.348 753.119 262.02C751.988 256.971 752.67 251.568 755.695 247.25C758.654 243.026 762.413 241.165 767.321 240.125Z"
     id="path15" />
  <path
     transform="scale(0.884766 0.884766)"
     d="M768.72 249.538C769.766 249.676 770.842 249.815 771.843 250.159C773.904 250.87 775.892 252.518 776.674 254.588C777.415 256.55 777.229 258.91 776.294 260.764C774.976 263.377 772.919 264.067 770.269 264.928C768.964 264.77 767.553 264.638 766.312 264.174C764.31 263.423 762.789 261.692 761.979 259.75C761.259 258.027 761.548 255.782 762.362 254.139C763.706 251.429 765.969 250.39 768.72 249.538Z"
     id="path16" />
  <path
     fill="#BEBCBB"
     transform="scale(0.884766 0.884766)"
     d="M251.775 239.582C255.413 239.152 258.986 239.167 262.392 240.666C266.752 242.584 269.747 246.371 271.433 250.75C273.107 255.098 272.905 260.196 270.87 264.368C268.225 269.791 263.724 272.533 258.235 274.394C254.796 274.769 251.486 274.867 248.284 273.402C243.85 271.375 240.417 267.74 238.789 263.121C237.074 258.257 237.271 253.49 239.658 248.867C242.378 243.599 246.422 241.401 251.775 239.582Z"
     id="path17" />
  <path
     transform="scale(0.884766 0.884766)"
     d="M253.07 248.501C254.605 248.436 256.083 248.47 257.577 248.872C259.901 249.498 261.912 251.299 263.011 253.428C263.898 255.148 263.746 257.962 263.096 259.75C262.027 262.69 259.713 264.255 256.982 265.49C255.426 265.563 253.868 265.62 252.356 265.174C250.019 264.485 248.244 262.738 247.231 260.563C246.217 258.387 246.334 256.049 247.235 253.862C248.43 250.959 250.291 249.741 253.07 248.501Z"
     id="path18" />
  <path
     fill="#BEBCBB"
     transform="scale(0.884766 0.884766)"
     d="M769.518 747.566C772.857 747.388 775.732 747.834 778.762 749.325C783.238 751.529 787.054 755.939 788.501 760.739C789.903 765.388 789.293 770.511 786.933 774.75C784.185 779.686 779.438 782.652 774.103 784.101C769.654 784.158 765.57 783.677 761.696 781.282C758.069 779.04 754.608 775.122 753.655 770.887C752.526 765.874 753.124 760.653 755.943 756.284C759.142 751.326 763.949 748.803 769.518 747.566Z"
     id="path19" />
  <path
     transform="scale(0.884766 0.884766)"
     d="M769.756 756.515C771.432 756.575 773.404 757.03 774.878 757.848C776.674 758.845 779.039 761.157 779.443 763.25C779.917 765.704 779.603 768.281 778.27 770.408C776.448 773.318 773.85 774.178 770.671 774.901C769.499 774.797 768.239 774.72 767.129 774.306C764.723 773.41 762.875 771.322 761.893 769C760.998 766.884 760.918 765.083 761.823 762.967C763.349 759.398 766.282 757.767 769.756 756.515Z"
     id="path20" />
  <path
     fill="#BEBCBB"
     transform="scale(0.884766 0.884766)"
     d="M248.31 748.121C251.881 747.902 255.159 747.802 258.492 749.391C263.437 751.748 266.787 755.902 268.658 760.975C270.234 765.248 269.837 770.251 267.814 774.315C265.09 779.787 260.611 782.45 255.011 784.196C250.87 784.561 247.543 784.514 243.688 782.713C239.026 780.535 235.783 776.168 234.204 771.353C232.598 766.456 233.564 761.208 236.004 756.75C238.715 751.797 243.113 749.629 248.31 748.121Z"
     id="path21" />
  <path
     transform="scale(0.884766 0.884766)"
     d="M249.521 757.496C250.926 757.456 252.257 757.46 253.628 757.816C255.834 758.39 257.991 760.093 259.093 762.088C260.221 764.132 260.215 766.576 259.528 768.75C258.536 771.894 256.688 773.244 253.852 774.724C252.374 774.978 250.526 775.092 249.075 774.689C247.061 774.131 245.356 772.56 244.405 770.728C243.242 768.486 242.949 765.468 243.743 763.062C244.693 760.185 246.953 758.781 249.521 757.496Z"
     id="path22" />
  <path
     fill="#F25C05"
     transform="scale(0.884766 0.884766)"
     d="M731.639 771.205C735.067 772.458 738.244 774.466 741.5 776.105C744.988 777.861 747.287 781.225 749.738 784.201C743.109 790.463 735.634 796.227 728.449 801.841C691.86 830.425 649.701 851.417 604.825 863.452C592.374 866.791 579.588 868.946 566.885 871.094L549.099 872.864C553.703 865.879 559.946 859.448 565.388 853.059C566.826 851.371 568.853 848.271 570.603 847.029C571.035 846.722 572.863 846.61 573.5 846.51L583.891 844.784L603.562 840.057C639.811 829.966 675.347 814.645 705.956 792.493C714.897 786.023 723.29 778.414 731.639 771.205Z"
     id="path23" />
  <path
     fill="#F25C05"
     transform="scale(0.884766 0.884766)"
     d="M547.381 149.771C622.464 157.616 693.924 188.44 751.276 237.357C749.04 239.872 746.933 242.298 745.223 245.21L744.837 245.877L743.452 250C742.058 250.963 739.459 250.308 737.75 250.582C736.373 250.804 734.964 251.317 733.647 251.771C733.334 251.878 733.041 252.129 732.712 252.099C731.934 252.027 726.866 247.328 725.994 246.626C699.151 225.034 668.087 207.57 635.994 195.16L610.119 186.093L602.592 184.01C601.975 183.852 600.076 183.6 599.602 183.258C598.547 182.5 597.782 180.963 596.769 180.108C595.93 179.401 593.407 179.004 592.34 178.791C586.724 177.668 581.712 177.828 576.12 177.315C574.21 177.14 571.05 177.208 569.314 176.609C567.988 176.152 550.027 152.946 547.381 149.771Z"
     id="path24" />
  <path
     fill="#F25C05"
     transform="scale(0.884766 0.884766)"
     d="M787.075 276.75L788.226 276.524C795.815 284.86 802.467 293.935 809.001 303.104C833.968 338.14 852.315 377.495 863.616 419C868.918 438.474 872.881 458.225 874.385 478.371C871.57 476.432 869.054 473.942 866.511 471.657L853.163 459.938C851.977 458.928 848.728 456.706 848.167 455.361C846.492 451.348 845.934 445.445 844.9 441.14C841.885 428.586 838.969 415.867 834.717 403.669C823.862 372.53 809.111 343.174 789.971 316.283L778.794 301.73C776.305 298.747 773.351 295.793 771.214 292.563C772.282 289.961 773.308 287.461 773.89 284.698C774.059 283.893 773.81 284.201 774.637 283.86C779.626 281.805 782.889 280.298 787.075 276.75Z"
     id="path25" />
  <path
     fill="#F25C05"
     transform="scale(0.884766 0.884766)"
     d="M149.333 544.31C152.453 546.525 155.247 549.379 158.094 551.935L170.213 562.557C171.981 564.115 175.418 566.399 176.681 568.275C177.117 568.924 177.3 570.877 177.484 571.75L179.571 581.379L185.677 604.054C199.346 649.421 221.01 694.317 252.852 729.895C252.121 731.473 251.5 732.907 251.199 734.632C251.042 735.533 250.959 736.179 250.5 736.987L247.121 737.505C241.683 738.524 237.74 739.88 233.001 742.809C224.329 734.023 216.909 722.892 210.055 712.642C186.938 678.066 169.422 638.884 159.069 598.606C154.488 580.787 151.639 562.547 149.333 544.31Z"
     id="path26" />
  <path
     fill="#F25C05"
     transform="scale(0.884766 0.884766)"
     d="M280.658 772.537C282.124 773.267 283.61 774.034 285.166 774.551C289.298 775.922 290.618 775.264 294.422 773.338L326.664 796.651C352.269 813.336 381.191 826.931 410.347 835.972L440.924 844.074L450.75 846.187C452.224 846.479 454.582 846.579 455.918 847.143C456.616 847.438 458.599 850.387 459.162 851.079L476.109 872.726L470.88 872.411C396.896 864.164 329.532 833.649 272.949 785.537C277.388 781.749 278.805 777.888 280.658 772.537Z"
     id="path27" />
  <path
     fill="#F25C05"
     transform="scale(0.884766 0.884766)"
     d="M874.193 546.25C874.542 546.729 874.523 547.427 874.516 548C874.479 551.208 873.747 554.689 873.384 557.896L869.846 581.945C860.839 628.202 842.599 672.714 816.011 711.644C808.202 723.078 800.331 733.657 790.957 743.862C787.186 740.955 783.726 738.878 779.328 737.049L775.672 736.197L772.939 728.616C772.806 727.773 784.673 713.459 786.12 711.584C797.921 696.289 808.376 679.534 817.12 662.296C827.45 641.933 835.698 619.763 841.559 597.689L846.194 578.25C846.71 575.871 846.956 572.297 847.888 570.137C848.733 568.181 853.057 565.099 854.74 563.591L874.193 546.25Z"
     id="path28" />
  <path
     fill="#F25C05"
     transform="scale(0.884766 0.884766)"
     d="M234.969 278.705C240.841 283.364 246.603 289.26 251.473 294.968L230.944 321.728C210.96 350.48 195.982 382.345 185.837 415.825C183.284 424.251 181.038 432.75 179.324 441.389L177.443 451.736C177.214 453.144 177.133 455.179 176.609 456.488C175.953 458.124 171.853 460.877 170.437 462.087L157.329 473.761L148.538 481.696C152.021 453.894 156.882 426.74 165.531 400C175.073 370.499 188.828 342.353 205.906 316.509C214.685 303.224 224.055 290.33 234.969 278.705Z"
     id="path29" />
  <path
     fill="#F25C05"
     transform="scale(0.884766 0.884766)"
     d="M471.79 150.311C473.488 150.151 475.805 149.551 477.34 150.25L457.132 175.547C455.108 176.025 453.011 176.072 451 176.566C449.229 177 447.611 178.193 445.75 177.765C442.974 177.128 440.572 177.107 437.75 177.613C434.574 178.183 432.586 179.276 430.804 181.973C430.7 182.13 430.665 182.358 430.5 182.448C429.821 182.819 428.031 183.001 427.225 183.196L419.066 185.244C410.591 187.496 402.167 189.893 393.94 192.941C367.779 202.635 342.527 215.709 319.821 231.956L303.917 243.92C300.618 246.578 297.333 249.773 293.75 252.014C292.304 251.583 290.757 251.117 289.25 251.498C287.267 252 285.242 253.8 283.25 253.382L282.657 251.882C280.406 245.617 278.192 242.489 273.178 238.102C304.268 211.058 340.092 188.485 378.488 173.365C408.32 161.618 440.01 154.245 471.79 150.311Z"
     id="path30" />
  <path
     fill="#707070"
     transform="scale(0.884766 0.884766)"
     d="M511.763 135.618L513.136 135.661C516.088 135.918 519.009 137.403 521.138 139.434C523.71 141.886 525.848 144.979 528.036 147.778L538.704 161.419L578.233 211.115C583.341 210.256 589.34 209.618 593.888 207.029C597.655 204.886 600.313 201.721 603.029 198.42C637.923 209.648 671.228 225.042 701.217 246.271C709.338 252.021 717.5 257.939 724.718 264.804L742.15 258.874C742.967 263.077 744.014 266.876 746.27 270.558C750.482 277.431 756.81 281.331 764.481 283.238C763.276 286.123 758.689 297.407 759.027 299.588C759.12 300.192 761.092 302.507 761.516 303.077L771.84 316.423C790.752 341.912 806.051 369.254 817.503 398.876L820.619 407.188C820.846 407.823 821.584 409.363 821.6 409.972C821.664 412.357 818.41 417.172 817.25 419.282C814.556 424.18 812.354 428.954 812.407 434.679C812.442 438.447 813.79 441.331 816.138 444.267C821.925 451.502 830.789 457.732 837.771 463.844L867.2 490.206L891.804 511.974C890.584 515.848 827.001 567.77 817.907 579.362C810.307 589.049 815.947 600.58 819.511 610.75C819.959 612.026 821.364 614.779 821.398 616.029C821.412 616.55 820.419 618.468 820.189 619.034C811.543 640.362 801.855 660.8 789.486 680.248L775.707 700.193L765.641 712.883C763.625 715.306 760.357 718.463 759.343 721.462C758.018 725.38 763.889 733.749 765.649 737.402C761.298 738.826 757.636 740.316 754.048 743.239C746.789 749.151 743.926 756.81 742.983 765.859L726.605 757.87C721.605 755.596 717.287 753.895 711.843 756.118C703.674 759.455 704.056 767.299 701.11 774.028C698.77 779.372 691.053 783.293 686.397 786.2C671.436 795.539 655.772 804.176 639.388 810.75L602.507 824.218L596.093 810.95L579.303 811.608C576.931 814.111 575.071 817.045 572.987 819.784L562.054 834.097L533.455 871.728C529.016 877.738 524.752 884.759 519.699 890.217C517.871 892.192 515.158 892.538 512.584 892.584C509.39 892.642 507.495 891.894 505.25 889.63L501.899 885.781L447.525 812.067L430.503 811.304L423.251 823.568C386.457 815.087 349.634 796.776 319.23 774.423L319.75 773.515C320.519 772.224 321.291 771.048 321.623 769.557C322.39 766.111 322.092 761.95 320.014 759C318.181 756.398 315.216 754.114 312 753.639C304.494 752.531 296.757 760.681 291.076 764.886C286.262 760.978 281.902 756.633 277.314 752.474C271.986 747.645 265.806 742.591 261.626 736.717C262.915 734.018 264.964 731.732 266.216 729.03C268.47 724.165 264.399 720.392 261.574 716.898C234.532 683.454 214.717 646.335 201.506 605.408C204.734 604.18 207.729 603.056 210.169 600.489C213.167 597.334 214.606 593.886 214.527 589.567C214.469 586.358 213.509 583.063 211.535 580.5C209.21 577.48 205.939 575.053 203.037 572.597L189.511 561.17L149.622 527.783C143.812 522.798 137.768 518.073 132.269 512.742C139.066 506.2 146.656 500.251 153.844 494.129L193.748 459.989C199.506 455 206.307 450.363 211.42 444.792C213.254 442.794 214.938 440.309 215.381 437.578C216.821 428.711 205.85 421.326 201.111 414.803C203.157 406.766 206.75 398.764 209.878 391.09C219.065 368.549 230.588 347.338 244.587 327.423C251.317 317.849 258.812 308.78 266.223 299.73C262.538 294.808 258.223 290.313 254.973 285.081C257.654 284.63 260.618 284.22 263.043 282.952C268.238 280.235 272.303 275.219 276.389 271.114C280.752 266.73 285.215 262.538 290.107 258.747L299.916 265.717C335.645 233.862 377.834 211.849 423.497 198.033C426.115 201.463 429.042 205.199 432.75 207.492C436.073 209.546 440.086 210.721 443.977 210.974C444.33 210.997 445.941 211.181 446.254 211.045C448.921 209.89 456.406 199.164 458.537 196.5L491.402 155.326L499.637 144.75C501.219 142.731 502.89 140.289 504.869 138.648C506.95 136.924 509.208 136.267 511.763 135.618Z"
     id="path31" />
  <path
     fill="white"
     transform="scale(0.884766 0.884766)"
     d="M506.78 233.722L507.703 233.685C523.668 233.104 539.788 234.758 555.5 237.476C608.356 246.62 659.593 271.071 698.981 307.77C709.044 317.146 718.874 327.048 727.566 337.715C740.273 353.31 750.754 370.231 759.829 388.15C777.402 422.849 787.991 459.463 789.203 498.518C791.492 572.246 763.766 646.088 713.186 699.957C690.896 723.697 663.966 744.886 635.032 759.928C599.79 778.251 559.21 788.72 519.527 790.023C498.703 790.465 478.216 789.004 457.75 784.945C421.229 777.701 386.468 762.017 356.05 740.714C347.14 734.474 338.339 727.928 330.28 720.608C310.675 702.799 292.587 682.822 278.088 660.601C269.927 648.094 263.086 634.307 257.281 620.55C254.16 613.155 250.909 605.755 248.391 598.13C240.345 573.772 236.291 548.302 235.101 522.725C231.785 451.485 256.78 380.239 304.956 327.498C343.489 285.313 394.174 253.526 450.162 240.718C468.881 236.436 487.633 234.559 506.78 233.722Z"
     id="path32" />
  <path
     transform="scale(0.884766 0.884766)"
     d="M500.608 248.25L501.879 248.176C570.464 244.732 637.856 271.791 688.447 317.414C738.608 362.65 770.508 426.648 774.048 494.342C776.663 544.354 764.02 596.368 739.145 639.835C729.484 656.717 717.268 672.826 704.258 687.25C674.812 719.897 635.935 746.673 594.378 761.218C571.797 769.121 547.081 773.645 523.232 774.873C452.462 776.51 385.334 752.609 332.866 704.916C282.854 659.455 251.487 594.571 248.56 526.899C247.636 505.537 248.691 483.696 252.673 462.646C261.955 413.576 285.441 369.455 319.138 332.863C365.771 282.223 431.758 251.062 500.608 248.25Z"
     id="path33" />
  <path
     fill="white"
     transform="scale(0.884766 0.884766)"
     d="M454.262 610.218L462.541 618.709C457.29 623.659 452.968 628.69 448.501 634.34L447.25 633.992L438.022 628.196C442.629 621.793 448.742 615.853 454.262 610.218Z"
     id="path34" />
  <path
     fill="white"
     transform="scale(0.884766 0.884766)"
     d="M565.495 610.479C571.25 615.63 576.189 622.264 581.243 628.132L571.75 634.554L570.871 635.219L570.25 634.987C567.865 629.149 561.406 622.464 556.638 618.336L556.045 617.829C559.81 615.706 562.571 613.612 565.495 610.479Z"
     id="path35" />
  <path
     fill="white"
     transform="scale(0.884766 0.884766)"
     d="M499.128 584.383C507.493 585.14 515.09 585.429 523.498 584.959L523.165 601.829L521.655 601.502C513.848 599.727 506.836 600.047 499.008 601.235L499.128 584.383Z"
     id="path36" />
  <path
     fill="white"
     transform="scale(0.884766 0.884766)"
     d="M643.883 317.75C650.474 318.09 659.834 323.452 664.644 327.844C671.773 334.354 675.606 342.313 675.873 352.027C676.221 364.637 670.737 374.773 662.25 383.675L661.263 383.751C660.78 382.9 659.394 381.014 659.212 380.137C659.092 379.563 659.421 379.356 659.736 379.013C666.089 372.109 670.187 365.884 671.199 356.369C672.79 341.41 663.367 329.895 650.229 324.217C648.215 323.347 643.676 322.542 642.421 321C642.751 319.687 643.113 318.864 643.883 317.75Z"
     id="path37" />
  <path
     fill="white"
     transform="scale(0.884766 0.884766)"
     d="M379.392 323.56C381.822 323.442 384.647 323.216 387.035 323.655C390.702 324.33 394.462 326.134 397.992 327.345C402.958 329.048 408.881 330.473 414.13 330.713C426.318 331.271 437.691 325.032 450.031 326.676C456.846 327.584 464.852 330.82 468.956 336.576C470.065 338.131 470.36 339.364 470.02 341.25C466.046 345.897 454.264 344.672 448.316 345.819L447.385 346.004C439.876 347.833 432.974 351.466 426.126 354.939C417.737 359.193 409.547 364.795 399.731 362.242C390.182 359.758 375.994 350.902 371.01 342.095C369.22 338.931 368.514 335.536 369.574 332C370.447 329.085 372.149 326.505 374.889 325.076C376.279 324.351 377.887 323.96 379.392 323.56Z"
     id="path38" />
  <path
     fill="#707070"
     transform="scale(0.884766 0.884766)"
     d="M308.025 620.893C312.081 614.963 318.74 611.324 325.72 610.044C333.126 608.687 341.028 610.13 347.273 614.41C352.421 617.938 357.268 624.17 358.492 630.372L357.334 631.75L357.556 632.384C359 636.624 359.115 639.753 358.716 644.158L400.059 656.358C411.362 659.699 423.256 662.586 434.25 666.794L440.53 668.951C440.958 675.142 441.614 681.023 442.935 687.098L356.947 660.696C356.068 660.413 351.693 658.772 350.903 658.983C350.563 659.074 349.18 660.385 348.809 660.678C346.879 662.201 344.857 663.638 342.637 664.712C336.125 667.863 328.024 668.147 321.253 665.663C314.13 663.049 308.022 657.914 304.878 650.943C302.302 645.231 300.594 636.952 302.816 630.904C303.551 627.439 305.537 623.425 308.025 620.893Z"
     id="path39" />
  <path
     fill="#989895"
     transform="scale(0.884766 0.884766)"
     d="M308.025 620.893L311.255 619.25C311.245 620.681 310.058 620.701 310.194 622.034C308.68 623.897 304.68 630.593 302.816 630.904C303.551 627.439 305.537 623.425 308.025 620.893Z"
     id="path40" />
  <defs
     id="defs41">
    <linearGradient
       id="gradient_0"
       gradientUnits="userSpaceOnUse"
       x1="326.99634"
       y1="624.52374"
       x2="332.53595"
       y2="608.98291">
      <stop
         offset="0"
         stop-color="#ABABAB"
         id="stop40" />
      <stop
         offset="1"
         stop-color="#E5E4E6"
         id="stop41" />
    </linearGradient>
  </defs>
  <path
     fill="url(#gradient_0)"
     transform="scale(0.884766 0.884766)"
     d="M308.025 620.893C312.081 614.963 318.74 611.324 325.72 610.044C333.126 608.687 341.028 610.13 347.273 614.41C352.421 617.938 357.268 624.17 358.492 630.372L357.334 631.75C355.161 626.047 352.024 621.146 347.052 617.484C341.603 613.47 334.675 611.756 327.976 612.833L327.25 612.959C319.946 614.187 315.552 617.214 310.194 622.034C310.058 620.701 311.245 620.681 311.255 619.25L308.025 620.893Z"
     id="path41" />
  <path
     transform="scale(0.884766 0.884766)"
     d="M328.387 620.118C331.258 619.957 333.819 619.972 336.57 620.997C341.234 622.735 344.622 626.54 346.475 631.075C348.211 635.327 348.342 639.606 346.531 643.819C344.885 647.65 341.289 651.941 337.237 653.365L334.252 654.326C331.851 654.4 329.406 654.571 327.026 654.184L326.498 654.09C324.592 653.773 323.074 652.935 321.483 651.872L320.998 651.544C317.964 649.522 315.587 645.746 314.637 642.25C313.36 637.556 314.401 632.072 316.884 627.958C319.538 623.56 323.584 621.383 328.387 620.118Z"
     id="path42" />
  <path
     fill="#707070"
     transform="scale(0.884766 0.884766)"
     d="M662.611 635.674C662.044 630.472 664.687 623.7 667.681 619.488C672.598 612.572 680.097 607.799 688.534 606.637C696.037 605.605 704.281 608.245 710.257 612.774C717.602 618.338 720.383 625.705 721.713 634.512C721.583 643.529 719.794 651.145 713.086 657.58C707.268 663.163 699.5 666.732 691.359 666.456C682.766 666.163 676.678 662.31 670.442 656.851L613.831 676.642L587.049 685.824C583.715 686.876 579.468 688.597 575.979 688.621C577.619 683.363 578.337 678.038 578.511 672.551C578.494 671.136 578.183 668.8 578.85 667.545C579.199 666.889 581.561 666.526 582.349 666.305C590.283 664.077 598.084 660.882 605.901 658.242L639.82 647.13C646.535 644.859 653.744 641.455 660.666 640.167L662.267 639.864L662.901 639.75C663.082 638.258 663.376 637.055 662.611 635.674Z"
     id="path43" />
  <path
     transform="scale(0.884766 0.884766)"
     d="M674.587 636.99C674.409 633.433 675.059 629.968 676.761 626.829C678.807 623.057 682.612 619.85 686.76 618.681C691.994 617.205 697.254 617.736 701.912 620.618C706.651 623.551 708.795 627.788 709.993 633.014C709.586 638.933 708.758 643.848 704 647.996C699.794 651.663 694.758 653.082 689.25 652.435C685.173 651.956 681.023 649.41 678.557 646.156C676.453 643.38 675.299 640.408 674.65 637.015L674.587 636.99Z"
     id="path44" />
  <path
     fill="#989895"
     transform="scale(0.884766 0.884766)"
     d="M662.611 635.674C662.044 630.472 664.687 623.7 667.681 619.488C672.598 612.572 680.097 607.799 688.534 606.637C696.037 605.605 704.281 608.245 710.257 612.774C717.602 618.338 720.383 625.705 721.713 634.512C717.752 633.915 713.913 634.051 709.993 633.014C708.795 627.788 706.651 623.551 701.912 620.618C697.254 617.736 691.994 617.205 686.76 618.681C682.612 619.85 678.807 623.057 676.761 626.829C675.059 629.968 674.409 633.433 674.587 636.99L673.892 636.511C671.169 634.516 670.206 629.811 665.75 630.85C665.059 631.011 664.991 631.084 664.429 631.377C663.502 635.226 663.447 638.771 663.383 642.72L594 665.504C591.037 666.455 587.96 667.313 584.917 667.953C583.379 668.276 580.919 668.348 579.558 669.04C579.136 670.218 578.776 671.324 578.511 672.551C578.494 671.136 578.183 668.8 578.85 667.545C579.199 666.889 581.561 666.526 582.349 666.305C590.283 664.077 598.084 660.882 605.901 658.242L639.82 647.13C646.535 644.859 653.744 641.455 660.666 640.167L662.267 639.864L662.901 639.75C663.082 638.258 663.376 637.055 662.611 635.674Z"
     id="path45" />
  <path
     fill="white"
     transform="scale(0.884766 0.884766)"
     d="M358.492 630.372C359.221 633.255 359.642 635.802 359.717 638.782C367.698 641.111 440.364 663.756 440.737 663.718C442.76 644.901 450.872 629.836 465.751 617.958C477.657 608.455 489.069 604.204 504.042 602.243C521.03 600.018 539.797 606.22 553.081 616.672C556.576 619.422 559.452 622.786 562.264 626.209C564.659 629.123 567.325 632.217 569.271 635.442C574.351 643.863 576.912 653.8 578.533 663.384L662.611 635.674C663.376 637.055 663.082 638.258 662.901 639.75L662.267 639.864L660.666 640.167C653.744 641.455 646.535 644.859 639.82 647.13L605.901 658.242C598.084 660.882 590.283 664.077 582.349 666.305C581.561 666.526 579.199 666.889 578.85 667.545C578.183 668.8 578.494 671.136 578.511 672.551C578.337 678.038 577.619 683.363 575.979 688.621C573.252 696.056 570.068 702.432 565.327 708.796L577.007 717.632C572.634 723.297 566.686 728.209 561.476 733.124L551.636 723.233C542.458 730.591 532.16 734.569 520.685 736.746L524.395 751.889L495.112 752.161L494.752 736.463C492.194 735.383 489.205 735.024 486.539 734.057C478.286 731.062 471.736 726.585 464.917 721.148L451.24 731.308C447.647 724.791 442.883 718.626 438.268 712.799L449.853 703.74C449.222 701.496 447.801 699.293 446.806 697.173C445.27 693.901 444.08 690.522 442.935 687.098C441.614 681.023 440.958 675.142 440.53 668.951L434.25 666.794C423.256 662.586 411.362 659.699 400.059 656.358L358.716 644.158C359.115 639.753 359 636.624 357.556 632.384L357.334 631.75L358.492 630.372Z"
     id="path46" />
  <path
     fill="#989895"
     transform="scale(0.884766 0.884766)"
     d="M504.871 607.71L505.158 607.663C522.129 606.382 538.094 611.396 551.044 622.466C563.948 633.496 571.68 648.792 572.805 665.75C573.984 683.546 568.202 698.671 556.57 711.998C546.088 724.007 531.025 731.721 515.122 732.803C511.575 733.242 507.03 733.26 503.51 732.678C491.55 730.701 481.247 727.704 471.455 720.123C457.728 709.496 448.677 693.314 446.715 676.141C444.975 660.916 449.597 644.337 459.17 632.316C471.033 617.418 486.213 609.928 504.871 607.71Z"
     id="path47" />
  <path
     fill="white"
     transform="scale(0.884766 0.884766)"
     d="M504.286 633.579C513.913 632.614 522.554 634.47 530.592 639.958C538.391 645.283 543.681 653.863 545.334 663.102C547.11 673.036 544.883 683.799 538.869 691.961C533.353 699.448 524.763 704.421 515.643 705.842C507.637 706.703 499.42 705.574 492.357 701.563C483.588 696.585 477.228 687.392 474.717 677.727C472.49 669.155 473.674 659.03 478.279 651.491C484.507 641.299 492.932 636.303 504.286 633.579Z"
     id="path48" />
  <path
     transform="scale(0.884766 0.884766)"
     d="M507.207 641.641C514.022 641.23 520.383 643.183 526.094 646.863C532.115 650.743 536.295 657.432 537.689 664.415C539.146 671.716 537.269 680.533 533.112 686.674C528.584 693.363 521.37 696.924 513.709 698.589C510.477 698.637 506.838 698.728 503.735 697.798L503 697.566C500.846 696.93 498.838 696.246 496.82 695.257C490.002 691.916 484.976 685.563 482.632 678.397L482.35 677.5L481.73 675.224C480.487 667.759 482.206 659.388 486.773 653.337C491.962 646.463 498.765 642.884 507.207 641.641Z"
     id="path49" />
  <path
     fill="white"
     transform="scale(0.884766 0.884766)"
     d="M592.524 286.137C596.239 285.755 600.795 285.418 604.25 287.039C610.844 290.133 616.139 302.471 619.608 308.753C621.983 313.052 624.695 317.26 626.383 321.887C625.532 323.95 624.645 326.209 622.997 327.785C620.258 330.403 614.205 332.304 610.704 334.058L644.655 422.97C647.443 423.037 651.959 423.128 654.5 422.03C657.697 420.648 660.01 418.359 661.229 415.109L661.448 414.489C669.789 414.296 678.271 416.147 686.202 418.608C707.887 425.338 728.053 441.278 738.62 461.495C749.664 482.621 752.001 509.038 744.788 531.767C737.951 553.312 722.667 572.476 702.431 582.828C680.655 593.968 655.477 596.69 632.132 589.072C610.264 581.935 591.29 565.75 580.963 545.152C570.245 523.778 568.33 496.621 576.081 473.948C583.748 451.521 599.403 433.954 620.659 423.57L612.53 401.459L514.326 488.419C515.098 492.4 516.96 495.916 517.405 500.073C518.479 510.127 514.402 518.953 508.27 526.589L518.512 542.25C518.854 542.762 520.41 545.529 520.75 545.697C521.478 546.057 523.456 545.659 524.273 545.586C527.257 545.318 530.817 545.023 533.575 546.403C537.358 548.295 538.581 551.093 539.737 554.899L503.623 571.035C501.859 568.198 500.536 565.651 501.275 562.213C502.406 556.948 505.58 554.586 509.757 551.839L497.107 534.088C490.833 536.52 483.768 537.572 477.171 535.819L476.25 535.564C470.044 533.919 464.572 530.934 460.075 526.3C459.143 525.34 457.625 523.123 456.524 522.523C455.124 521.76 449.81 522.446 448.008 522.514C446.17 530.739 443.892 538.364 440.479 546.088C436.617 554.38 431.192 561.863 424.702 568.299C408.087 584.777 384.975 594.351 361.5 593.944C337.822 593.534 315.333 583.204 298.968 566.25C282.95 549.657 274.978 525.878 275.556 503C276.159 479.116 286.289 456.815 303.393 440.332C320.253 424.083 342.163 415.8 365.516 416.353C382.524 416.757 400.406 422.948 414.083 433.08C419.569 437.144 424.28 441.941 428.984 446.854L436.497 437.5C438.063 435.492 439.392 433.328 441.669 432.048L442.06 431.846C441.551 427.857 438.055 422.361 436.325 418.636L414.728 373.184C410.929 373.548 406.211 373.448 402.5 372.552C401.447 371.215 401.465 369.631 401.283 368C402.067 366.881 403.702 367.39 405.034 367.394C409.708 367.41 413.079 366.209 417.425 364.615L448.737 431.044L453.784 428.725L422.303 362.092L429.857 357.816C432.582 369.362 439.546 380.765 444.515 391.565L455.969 415.626C457.481 418.675 458.666 422.035 460.446 424.918L595.546 356.296L588.48 337.672C587.269 334.436 585.438 330.685 585.072 327.229C584.817 324.815 585.789 322.86 587.346 321.065C591.217 316.602 597.499 315.629 603.05 315.271L595.843 305.139C594.938 304.079 593.635 302.438 592.238 302.153C589.936 301.682 586.099 302.402 583.603 302.431C572.857 302.553 561.703 303.155 551 302.404C549.094 301.39 548.147 300.43 547.518 298.312C547.133 297.021 547.292 294.368 548.113 293.271C548.961 292.138 549.977 291.316 551.341 290.929C553.675 290.267 556.859 290.573 559.283 290.55L577.948 290.597C579.461 290.61 582.157 290.998 583.5 290.649C584.448 290.403 585.063 288.695 585.75 288.099C587.203 286.838 590.64 286.481 592.524 286.137Z"
     id="path50" />
  <path
     transform="scale(0.884766 0.884766)"
     d="M601.585 374.25L602.687 374.201L605.676 383.447L599.75 387.455L598.75 386.295C597.041 383.961 594.826 381.436 593.563 378.859L601.585 374.25Z"
     id="path51" />
  <path
     transform="scale(0.884766 0.884766)"
     d="M648.492 434.75C650.448 434.382 653.539 434.126 655.453 434.594L656.987 456.051C657.472 460.778 658.798 466.239 658.421 470.956L657.75 470.071L650.63 448.025L647.386 439.094C647.133 438.413 646.354 436.941 646.321 436.25C646.305 435.905 646.501 435.583 646.591 435.25L648.492 434.75Z"
     id="path52" />
  <path
     transform="scale(0.884766 0.884766)"
     d="M391.98 518.75C397.562 518.226 403.529 518.642 409.12 518.998C415.559 519.407 422.131 519.85 428.46 521.121L423.003 535.865C422.557 536.739 422.044 537.448 421.48 538.25C418.464 537.522 414.853 534.803 412.121 533.245C405.962 529.733 399.344 526.437 393.5 522.442C392.492 521.753 390.145 520.403 389.941 519.25L391.98 518.75Z"
     id="path53" />
  <path
     transform="scale(0.884766 0.884766)"
     d="M295.815 492.045C306.681 493.64 317.084 496.321 327.765 498.753C330.546 499.386 335.302 499.598 337.488 501.25C337.442 502.638 337.593 504.1 336.784 505.29L334.124 505.459L294.381 508.49C294.39 502.848 294.891 497.607 295.815 492.045Z"
     id="path54" />
  <path
     transform="scale(0.884766 0.884766)"
     d="M301.371 475.371L339.899 494.659L337.75 499.562L335.866 499.371L296.169 490.95C296.839 485.602 298.956 480.162 301.371 475.371Z"
     id="path55" />
  <path
     transform="scale(0.884766 0.884766)"
     d="M400.876 447.221C405.333 450.434 408.924 454.3 412.288 458.612L381.815 481.032L378.25 483.583C376.931 484.3 375.688 483.564 374.317 483.191L374.133 482.25L400.876 447.221Z"
     id="path56" />
  <path
     transform="scale(0.884766 0.884766)"
     d="M626.559 442.262L642.03 487.862L633.791 478.96L610.532 454.423C614.985 449.329 620.793 445.678 626.559 442.262Z"
     id="path57" />
  <path
     transform="scale(0.884766 0.884766)"
     d="M384.252 439.102L399.394 446.416C398.924 449.011 394.055 453.6 392.307 455.812L376.91 476.258L372.864 482.646C371.584 483.069 368.545 481.777 367.147 481.386C366.953 479.615 368.892 475.616 369.564 473.823L384.252 439.102Z"
     id="path58" />
  <path
     transform="scale(0.884766 0.884766)"
     d="M452.925 452.25L454.193 452.084C456.036 460.537 460.904 469.042 464.641 476.822C458.849 481.083 455.008 487.208 453.133 494.122L452.968 494.75L451.75 495.462L449.5 495.427C448.46 494.282 448.674 491.686 448.521 490.096C447.944 484.108 446.759 478.49 444.814 472.802C443.409 468.695 441.507 464.796 440.202 460.652L452.925 452.25Z"
     id="path59" />
  <path
     transform="scale(0.884766 0.884766)"
     d="M385.509 519.75C388.512 519.933 391.282 522.147 393.748 523.715L403.956 529.814L421.245 539.413L413.406 551.275L409.86 555.252C404.18 548.353 397.844 541.864 391.671 535.4C388.141 531.704 384.668 527.528 380.674 524.344L380.272 524.032C381.793 522.445 383.332 520.335 385.509 519.75Z"
     id="path60" />
  <path
     transform="scale(0.884766 0.884766)"
     d="M422.494 472.25L423.687 472.176C425.937 476.374 427.092 481.409 428.321 485.99L397.234 494.977C407.582 494.981 417.97 489.603 428.027 487.271C429.301 489.45 429.654 493.631 429.25 496.084C427.481 496.891 422.335 496.178 420.155 496.164L388.359 496.014C386.769 495.041 385.812 492.693 384.865 491.082L422.494 472.25Z"
     id="path61" />
  <path
     transform="scale(0.884766 0.884766)"
     d="M607.98 390.352C608.95 392.302 609.534 394.674 610.249 396.745C608.564 397.099 607.185 397.587 605.75 398.569C602.484 400.803 599.421 403.923 596.431 406.531L576.313 424.375L549.974 447.216L509.679 482.345L505.586 478.727L607.98 390.352Z"
     id="path62" />
  <path
     transform="scale(0.884766 0.884766)"
     d="M321.541 450.191C324.629 453.677 327.324 457.731 330.068 461.5L347.541 486.383C344.652 488.759 342.421 491.06 340.28 494.108L301.997 474.229L306.09 467.265L310.267 461.399C312.686 462.754 314.945 465.325 317.049 467.211L333.636 481.779C336.165 484 338.552 486.795 341.5 488.411L341.64 487.949L311.072 460.309L321.541 450.191Z"
     id="path63" />
  <path
     transform="scale(0.884766 0.884766)"
     d="M379.919 524.772L409.235 555.862C404.778 560.09 400.229 563.554 394.799 566.443C392.244 561.58 377.41 531.606 374.673 530.05L375.18 531.75L393.969 567.012C388.847 569.375 383.868 571.159 378.399 572.542C376.217 568.962 375.54 562.929 374.528 558.75L367.777 530.521C372.493 529.25 375.888 527.477 379.919 524.772Z"
     id="path64" />
  <path
     transform="scale(0.884766 0.884766)"
     d="M596.47 325.25L597.719 325.267C600.811 338.62 607.306 351.697 612.33 364.441L628.579 408.477L652.305 478.645L658.992 499.242C660.578 497.864 662.546 496.035 664.75 495.931C666.347 495.855 667.669 496.537 668.75 497.684C670.474 499.512 671.373 502.07 671.058 504.575C670.744 507.069 668.751 508.614 666.961 510.146L665.412 510.836C662.116 512.03 658.255 512.564 655.033 510.821C652.467 509.433 650.635 506.848 649.812 504.089C649.116 501.751 649.135 498.824 650.317 496.649L650.75 495.905C654.369 488.03 599.974 346.07 592.176 327.918L596.47 325.25Z"
     id="path65" />
  <path
     transform="scale(0.884766 0.884766)"
     d="M356.355 435.659L366.559 435.418L360.174 479L360.54 479.25L367.65 435.616C372.372 435.128 379.027 437.204 383.491 438.923L372.67 463.11C370.326 468.679 367.801 474.602 366.359 480.465L366.206 481.111C359.286 481.071 354.014 482.01 348.028 485.658L330.404 460.133L322.509 449.419C326.495 446.536 330.67 444.095 335.1 441.965L351.191 479.46L351.539 479.25C348.019 466.584 342.04 453.124 335.994 441.486C340.891 439.306 345.558 437.828 350.792 436.625L355.861 475.49C355.89 470.353 355.121 465.308 354.642 460.206C353.912 452.433 353.068 444.674 351.576 437C352.679 435.937 354.823 435.917 356.355 435.659Z"
     id="path66" />
  <path
     transform="scale(0.884766 0.884766)"
     d="M481.632 478.614C487.422 478.328 492.229 479.044 497.363 482.009C503.757 485.702 507.157 491.914 508.893 498.903C510.439 505.129 508.885 512.416 505.456 517.75C501.219 524.339 495.106 526.874 487.749 528.423C481.866 529.034 476.04 527.959 471.001 524.785C465.941 521.598 461.638 515.077 460.481 509.304C459.059 502.212 460.427 494.584 464.638 488.645C468.959 482.552 474.473 479.959 481.632 478.614Z"
     id="path67" />
  <path
     fill="white"
     transform="scale(0.884766 0.884766)"
     d="M483.821 480.694C488.171 480.887 491.946 481.651 495.791 483.847C501.223 486.949 504.772 492.137 506.238 498.141C507.69 504.083 506.714 510.815 503.443 516C499.585 522.117 493.392 524.65 486.626 526.116C481.192 526.179 476.759 525.578 472.177 522.366C467.429 519.038 463.54 513.11 462.73 507.317C461.798 500.649 463.599 493.68 467.873 488.467C472.096 483.317 477.409 481.421 483.821 480.694Z"
     id="path68" />
  <path
     transform="scale(0.884766 0.884766)"
     d="M482.386 488.556C485.199 488.423 487.747 488.47 490.369 489.617C494.006 491.208 497.147 494.32 498.566 498.036C500.047 501.917 499.769 506.529 497.897 510.25C495.536 514.943 491.447 517.03 486.648 518.444C483.401 518.597 480.711 518.425 477.75 516.935C474.223 515.161 471.393 511.318 470.319 507.572C469.119 503.386 469.881 499.351 472.095 495.639C474.536 491.548 477.933 489.667 482.386 488.556Z"
     id="path69" />
  <path
     transform="scale(0.884766 0.884766)"
     d="M597.498 363.25C599.121 364.052 599.665 366.295 600.413 367.942L459.22 440.455L473.191 471.952L472.803 472.75C471.668 472.837 471.147 472.858 470.197 473.55C469.275 474.221 469.889 474.018 468.9 474.172L455.012 443.514C446.45 448.355 438.048 454.091 429.914 459.633C427.289 461.421 423.044 463.794 421.199 466.249L423.046 470.778L401 481.789C390.996 486.763 363.178 499.087 359.074 508.25C359.363 509.414 359.441 509.922 360.342 510.786C361.023 511.44 361.83 511.757 362.75 511.891C368.945 512.798 376.469 512.009 382.774 512.005L427.686 511.985L451.25 512.012C452.362 512.712 452.563 513.823 452.96 515L452.481 515.837L391.824 516.579C388.839 516.546 385.757 516.635 382.789 516.336C380.543 516.111 378.144 515.362 375.91 515.457C371.92 515.625 367.864 517.257 363.867 517.769C360.185 518.242 356.04 517.335 353.184 514.894C350.808 512.863 349.703 509.87 349.61 506.797C349.504 503.301 350.997 499.699 353.478 497.25C357.154 493.624 362.511 493.758 367.305 493.822C366.062 494.988 363.135 497.074 362.75 498.633C373.392 489.344 387.335 484.091 399.028 476.209C417.837 463.531 435.047 448.315 454.498 436.557C461.884 432.092 469.816 428.346 477.481 424.375L521.722 401.919L597.498 363.25Z"
     id="path70" />
  <path
     transform="scale(0.884766 0.884766)"
     d="M336.116 506.25C336.453 506.39 336.874 506.456 337.089 506.75C337.345 507.1 337.4 510.322 337.518 511C338.29 515.438 340.468 520.737 343.95 523.751C350.773 529.656 358.302 531.192 367.06 530.544C368.9 544.649 373.44 559.052 376.829 572.877C370.876 573.989 365.358 574.5 359.307 574.505L360.652 541.729C360.706 539.346 361.448 533.812 360.145 532.069L357.923 574.451C352.683 573.83 347.712 573.143 342.65 571.577L353.962 531.25L353.5 530.676C352.009 532.494 351.257 537.354 350.544 539.728L341.341 571.375C330.129 567.322 320.937 561.384 312.596 552.845L324.961 541.602L336.621 530.126C338.555 528.31 340.971 526.629 342.534 524.5L341.931 524.34C336.935 527.528 332.584 532.475 328.36 536.652L311.995 552.226C308.606 548.515 305.772 544.938 303.486 540.443L338.371 519.5L337.75 519.076C332.549 521.098 327.791 524.672 323.061 527.627L302.734 539.488C300.498 535.092 298.839 530.715 297.604 525.94L324.004 517.09C327.878 515.744 332.25 514.819 335.805 512.791C333.544 512.127 328.892 514.297 326.49 515.083L297.141 524.831C295.803 519.911 294.859 515.223 294.52 510.131C295.573 509.181 301.257 509.145 302.86 509.002L336.116 506.25Z"
     id="path71" />
  <path
     transform="scale(0.884766 0.884766)"
     d="M586.66 381.75L587.734 381.476C590.218 384.422 592.128 388.414 594.128 391.732L501.039 474.638C495.294 471.517 488.381 469.367 481.83 470.42L481.098 470.543L468.099 441.954C475.136 439.417 481.798 435.588 488.47 432.212L518.221 417.236L560 395.891C568.668 391.47 577.985 387.397 586.127 382.104L586.66 381.75Z"
     id="path72" />
  <path
     transform="scale(0.884766 0.884766)"
     d="M656.529 434.134L671.816 434.921C671.77 440.105 669.749 446.596 668.706 451.754L664.108 477.75L664.5 478.04C665.298 476.25 665.434 473.982 665.84 472.048L668.624 456.993L672.875 435.136C678.12 436.198 683.52 437.568 688.415 439.75C688.43 441.478 685.141 446.3 684.197 448.072L672.601 471.772C671.669 473.784 670.061 476.114 669.603 478.25L670.25 478.39C673.266 473.911 675.172 468.53 677.536 463.679L689.487 440.27C694.431 442.622 699.849 445.604 703.907 449.304L675.392 481.5L675.75 482.067C679.751 479.49 683.983 473.021 687.144 469.371C692.966 462.647 698.719 456.004 705.103 449.799C709.12 452.929 712.246 456.774 715.472 460.671L688.245 479.812C686.095 481.393 681.196 484.107 680.143 486.5L680.75 486.881L716.107 461.511C719.199 465.856 721.619 470.099 723.779 474.973L692.555 488.233C689.591 489.445 685.266 490.286 682.75 492.122L683.103 492.75C686.83 492.355 691.405 489.94 694.922 488.514L724.128 476.032L729.395 491.837L685.106 498.75L685.25 499.578C690.109 499.51 695.295 498.448 700.112 497.718L729.419 493.01C730.354 498.265 730.466 503.74 730.32 509.064C718.353 509.12 706.202 506.998 694.25 506.169C692.197 506.027 686.678 505.02 685.25 506.098L685.744 506.75L730.194 510.508C729.511 516.108 728.362 521.584 726.665 526.96L684.25 512.52L683.541 513L683.849 513.676L726.314 527.796C719.969 545.035 708.842 557.188 692.851 565.903C689.092 557.359 684.113 549.567 679.726 541.351L674.259 530.935C673.397 529.303 672.542 527.232 671.25 525.921C670.672 529.668 689.219 559.454 691.965 566.153C689.48 569.13 680.765 571.287 677.072 572.378C675.874 566.94 667.219 529.166 665.2 527.75C665.786 533.588 667.765 539.57 669.218 545.25L676.344 572.669C670.895 573.859 665.545 574.471 659.978 574.779L659.834 528.25C659.603 527.416 659.78 527.843 659.25 526.992C658.231 530.885 659.042 536.605 659.042 540.759L658.958 574.6C653.318 574.579 648.263 573.83 642.724 572.784L650.813 542.028C651.813 538.098 654.454 531.179 653.949 527.25L653.473 527.5L641.971 572.569L627.068 565.817L643.609 535.682C645.276 532.381 647.507 528.791 648.48 525.25C648.237 525.246 647.977 525.149 647.75 525.237C646.322 525.787 630.458 561.054 625.939 565.358C621.475 562.717 617.722 559.842 613.918 556.314L643.405 522.25L642.75 521.661L612.879 555.526C608.569 551.669 605.223 547.156 602.484 542.092C604.436 539.69 608.823 537.502 611.464 535.835C620.832 529.924 631.644 524.461 640.027 517.25L639.5 516.625C634.309 519.194 629.394 523.138 624.508 526.296L601.572 540.9C597.628 536.909 595.258 529.933 593.532 524.674C599.935 523.011 634.126 514.639 637.75 511.293C635.454 510.843 599.186 522.249 593.231 523.623L590.617 508.023C593.769 507.031 598.467 507.38 601.824 507.21L629.144 505.618C631.159 505.43 634.797 505.578 636.285 504.25C632.11 503.5 627.013 504.64 622.75 504.905L590.442 506.421C590.534 500.606 591.1 495.183 592.069 489.465C593.909 489.306 596.255 490.229 598.102 490.592L623.14 496.152C627.223 497.05 632.108 498.605 636.25 498.362C634.983 496.825 627.449 495.777 625.071 495.279L592.272 488.138C593.961 482.139 595.82 476.89 598.525 471.252L616.431 480.838L631.228 489.315C633.196 490.326 635.338 491.663 637.5 492.113L637.75 491.597C634.457 489.346 630.641 487.747 627.154 485.795L599.078 470.452C602.25 464.948 605.784 460.105 609.88 455.264L628.84 475.398C632.89 479.683 637.136 484.889 642.015 488.224L642.489 488.536C640.6 490.488 639.483 492.867 638.871 495.5C637.449 501.622 637.685 509.424 641.232 514.803C644.615 519.932 650.231 523.593 656.28 524.665C662.508 525.77 669.712 524.064 674.75 520.296C678.904 517.19 682.06 512.057 682.621 506.855C683.356 500.037 680.86 492.662 676.38 487.511C672.863 483.468 668.506 480.445 663.041 480.101C662.022 480.037 661.322 480.035 660.384 479.585C660.05 478.666 659.995 478.319 660.127 477.325L660.25 476.449C660.146 475.436 659.515 474.332 659.39 473.25C659.015 470.014 659.138 466.538 658.847 463.248L656.529 434.134Z"
     id="path73" />
</svg>
